<svg width="17" height="14" viewBox="0 0 17 14" fill="none" xmlns="http://www.w3.org/2000/svg">
<path d="M14.418 3.74107C14.4281 3.88319 14.4281 4.02535 14.4281 4.16747C14.4281 8.50247 11.1508 13.4974 5.16093 13.4974C3.31555 13.4974 1.60129 12.9593 0.159271 12.0253C0.421464 12.0558 0.673539 12.0659 0.94582 12.0659C2.46848 12.0659 3.87017 11.5482 4.9895 10.6649C3.55757 10.6345 2.35757 9.69032 1.94412 8.39081C2.14582 8.42125 2.34748 8.44156 2.55927 8.44156C2.85169 8.44156 3.14415 8.40094 3.4164 8.32991C1.92398 8.02531 0.80462 6.70553 0.80462 5.11163V5.07103C1.23821 5.31469 1.74246 5.46697 2.27687 5.48725C1.39956 4.89841 0.824795 3.89335 0.824795 2.75628C0.824795 2.14716 0.986109 1.58878 1.26848 1.10147C2.87184 3.09131 5.28192 4.39078 7.9844 4.53294C7.93399 4.28928 7.90373 4.0355 7.90373 3.78169C7.90373 1.97457 9.35583 0.502502 11.1609 0.502502C12.0987 0.502502 12.9457 0.89844 13.5407 1.53803C14.2768 1.39591 14.9827 1.12178 15.6079 0.746159C15.3659 1.5076 14.8516 2.14719 14.176 2.55325C14.8314 2.48222 15.4667 2.29944 16.0516 2.04566C15.608 2.69538 15.0533 3.27403 14.418 3.74107Z" fill="black"/>
</svg>
